<svg width="20" height="13" viewBox="0 0 20 13" fill="none" xmlns="http://www.w3.org/2000/svg">
<path d="M16.5958 7.294C16.2725 6.88567 16.365 6.70401 16.5958 6.339C16.6 6.33484 19.2692 2.6465 19.5442 1.39567L19.5458 1.39484C19.6825 0.939004 19.5458 0.604004 18.885 0.604004H16.6983C16.1417 0.604004 15.885 0.891504 15.7475 1.21317C15.7475 1.21317 14.6342 3.87817 13.0592 5.60567C12.5508 6.10484 12.3158 6.26484 12.0383 6.26484C11.9017 6.26484 11.6892 6.10484 11.6892 5.649V1.39484C11.6892 0.848171 11.5333 0.604004 11.0725 0.604004H7.63417C7.285 0.604004 7.0775 0.859004 7.0775 1.0965C7.0775 1.61484 7.865 1.734 7.94667 3.19234V6.3565C7.94667 7.04984 7.82083 7.17734 7.54167 7.17734C6.79833 7.17734 4.99417 4.5015 3.925 1.439C3.70917 0.844837 3.49833 0.604837 2.9375 0.604837H0.75C0.125833 0.604837 0 0.892337 0 1.214C0 1.78234 0.743333 4.60817 3.45667 8.34151C5.265 10.8898 7.81167 12.2707 10.1283 12.2707C11.5208 12.2707 11.6908 11.964 11.6908 11.4365C11.6908 9.00151 11.565 8.77151 12.2625 8.77151C12.5858 8.77151 13.1425 8.93151 14.4425 10.1607C15.9283 11.6182 16.1725 12.2707 17.0042 12.2707H19.1908C19.8142 12.2707 20.13 11.964 19.9483 11.359C19.5325 10.0865 16.7225 7.46901 16.5958 7.294Z" fill="#4B729F"/>
</svg>
