<svg width="14" height="16" viewBox="0 0 14 16" fill="none" xmlns="http://www.w3.org/2000/svg">
<path d="M6.99664 0C3.46121 0 0.583221 2.87799 0.583221 6.41342C0.583221 6.81593 0.620119 7.2218 0.697267 7.61761C0.700622 7.64109 0.714039 7.71153 0.740873 7.83228C0.838148 8.26499 0.982383 8.69099 1.17022 9.09686C1.86121 10.7237 3.38071 13.2226 6.71488 15.8994C6.79874 15.9665 6.89936 16 6.99999 16C7.10062 16 7.20125 15.9665 7.28511 15.8994C10.6159 13.2226 12.1388 10.7237 12.8298 9.09686C13.0176 8.69099 13.1618 8.26834 13.2591 7.83228C13.2859 7.71153 13.2994 7.64109 13.3027 7.61761C13.3765 7.2218 13.4168 6.81593 13.4168 6.41342C13.4101 2.87799 10.5321 0 6.99664 0ZM12.4038 7.45996C12.4038 7.46667 12.4004 7.47337 12.4004 7.48008C12.3971 7.49686 12.387 7.54717 12.3702 7.62432C12.3702 7.62767 12.3702 7.62767 12.3702 7.63103C12.2864 8.00671 12.1623 8.37233 11.9979 8.72453C11.9945 8.72788 11.9945 8.73459 11.9912 8.73795C11.3639 10.2239 9.98867 12.4914 6.99664 14.9635C4.00461 12.4914 2.62934 10.2239 2.00209 8.73795C1.99873 8.73459 1.99874 8.72788 1.99538 8.72453C1.83437 8.37568 1.71027 8.00671 1.62305 7.63103C1.62305 7.62767 1.62305 7.62767 1.62305 7.62432C1.60293 7.54717 1.59622 7.49686 1.59287 7.48008C1.59287 7.47337 1.58951 7.46667 1.58951 7.4566C1.52242 7.11111 1.48888 6.76226 1.48888 6.41006C1.48888 3.37442 3.961 0.902306 6.99664 0.902306C10.0323 0.902306 12.5044 3.37442 12.5044 6.41006C12.5044 6.76562 12.4709 7.11782 12.4038 7.45996Z" fill="#76B926"/>
<path d="M6.99665 2.41174C4.75262 2.41174 2.92453 4.23983 2.92453 6.48385C2.92453 8.72787 4.75262 10.556 6.99665 10.556C9.24067 10.556 11.0688 8.72787 11.0688 6.48385C11.0688 4.23983 9.24067 2.41174 6.99665 2.41174ZM6.99665 9.6503C5.24906 9.6503 3.83019 8.22808 3.83019 6.48385C3.83019 4.73962 5.25241 3.3174 6.99665 3.3174C8.74088 3.3174 10.1631 4.73962 10.1631 6.48385C10.1631 8.22808 8.74424 9.6503 6.99665 9.6503Z" fill="#76B926"/>
</svg>
