<svg width="16" height="17" viewBox="0 0 16 17" fill="none" xmlns="http://www.w3.org/2000/svg">
<path d="M15.3924 12.9549L12.2573 9.81989C11.8831 9.44567 11.2742 9.44567 10.9 9.81989L10.0847 10.6351C9.82928 10.8906 9.74853 11.2553 9.84181 11.5802L9.53422 11.8878C9.53412 11.8879 9.53406 11.8879 9.53397 11.888C9.31553 12.1067 7.95512 11.7711 6.31069 10.1267C4.6665 8.48251 4.33081 7.12232 4.54925 6.90348C4.54925 6.90342 4.54931 6.90342 4.54931 6.90342L4.85719 6.59557C4.94409 6.62054 5.03378 6.63329 5.12353 6.63329C5.36931 6.63329 5.61506 6.53976 5.80222 6.35267L6.61747 5.53742C6.99169 5.1632 6.99169 4.55435 6.61747 4.1801L3.48237 1.04498C3.30112 0.863729 3.06009 0.763916 2.80375 0.763916C2.54734 0.763916 2.3064 0.863791 2.12512 1.04498L1.30981 1.86029C1.05437 2.11573 0.973623 2.48048 1.0669 2.80532C1.0669 2.80532 0.806155 3.06857 0.793186 3.0852C-0.0740954 4.04923 -0.236814 5.56701 0.338155 7.38167C0.901186 9.15845 2.11494 11.0407 3.75587 12.6815C5.39675 14.3224 7.27897 15.5361 9.05575 16.0992C9.7695 16.3254 10.4372 16.4374 11.0436 16.4374C12.0377 16.4374 12.8666 16.1359 13.4607 15.5418L13.6318 15.3708C13.7174 15.3954 13.8069 15.4087 13.8984 15.4087C14.1548 15.4087 14.3958 15.3088 14.5771 15.1276L15.3924 14.3123C15.7666 13.9381 15.7666 13.3292 15.3924 12.9549ZM2.80375 1.7236L5.93887 4.85876L5.12406 5.67445C5.12406 5.67445 5.1239 5.67429 5.12362 5.67401L5.1119 5.66229L3.55606 4.10645L1.98847 2.53892L2.80375 1.7236ZM12.7822 14.8632C12.7821 14.8632 12.7821 14.8633 12.782 14.8633C12.0916 15.5537 10.8712 15.6677 9.34572 15.1843C7.71284 14.6668 5.96869 13.5369 4.43459 12.0028C2.90044 10.4687 1.77056 8.7246 1.25315 7.0917C0.769717 5.56617 0.883748 4.34576 1.57425 3.65523L1.57431 3.65517L1.66087 3.5686L4.0939 6.0016L3.87075 6.22476C3.87059 6.22492 3.87047 6.2251 3.87028 6.22529C2.94575 7.15098 4.05662 9.22989 5.63209 10.8054C6.81128 11.9845 8.2725 12.9035 9.32119 12.9035C9.67381 12.9035 9.97981 12.7996 10.2127 12.5667C10.2128 12.5666 10.2128 12.5665 10.2129 12.5664L10.4358 12.3435L12.8689 14.7765L12.7822 14.8632ZM13.8985 14.4489L10.7634 11.3138L11.5786 10.4986L14.7137 13.6336C14.7137 13.6336 13.8988 14.4492 13.8985 14.4489Z" fill="#37454A" fill-opacity="0.4"/>
</svg>
